<?xml version="1.0" encoding="UTF-8" standalone="no"?>
<!-- Created with Inkscape (http://www.inkscape.org/) -->

<svg
   width="210mm"
   height="297mm"
   viewBox="0 0 210 297"
   version="1.1"
   id="svg5"
   xml:space="preserve"
   sodipodi:docname="logo_svg_b&amp;w.svg"
   inkscape:version="1.2 (1:1.2.1+202207142221+cd75a1ee6d)"
   xmlns:inkscape="http://www.inkscape.org/namespaces/inkscape"
   xmlns:sodipodi="http://sodipodi.sourceforge.net/DTD/sodipodi-0.dtd"
   xmlns="http://www.w3.org/2000/svg"
   xmlns:svg="http://www.w3.org/2000/svg"><sodipodi:namedview
     id="namedview7"
     pagecolor="#ffffff"
     bordercolor="#000000"
     borderopacity="0.25"
     inkscape:showpageshadow="2"
     inkscape:pageopacity="0.0"
     inkscape:pagecheckerboard="0"
     inkscape:deskcolor="#d1d1d1"
     inkscape:document-units="mm"
     showgrid="false"
     inkscape:zoom="1.0308222"
     inkscape:cx="409.38195"
     inkscape:cy="487.96"
     inkscape:window-width="1366"
     inkscape:window-height="695"
     inkscape:window-x="0"
     inkscape:window-y="0"
     inkscape:window-maximized="1"
     inkscape:current-layer="layer1" /><defs
     id="defs2"><linearGradient
       id="linearGradient8916"
       inkscape:swatch="solid"><stop
         style="stop-color:#2b8951;stop-opacity:1;"
         offset="0"
         id="stop8914" /></linearGradient><rect
       x="134.23309"
       y="421.59536"
       width="794.70771"
       height="340.82186"
       id="rect523" /><rect
       x="245.09543"
       y="458.26762"
       width="485.40852"
       height="231.97155"
       id="rect343" /><rect
       x="116.30648"
       y="351.14114"
       width="593.97135"
       height="126.63308"
       id="rect233" /></defs><g
     inkscape:label="Capa 1"
     inkscape:groupmode="layer"
     id="layer1"><g
       id="g1969"><g
         id="g8928"><g
           aria-label="ASOCIACIÓN CIVIL"
           transform="matrix(0.26458455,0,0,0.26458333,-18.619521,12.729922)"
           id="text341"
           style="font-size:26.6667px;line-height:2;font-family:'DejaVu Sans';-inkscape-font-specification:'DejaVu Sans';letter-spacing:4.76999px;word-spacing:0.16px;white-space:pre;shape-inside:url(#rect343);shape-padding:59.0001;display:inline;fill:#2b8951;stroke-width:0"><path
             d="m 313.2103,534.01239 -3.56771,9.67449 h 7.14844 z m -1.48438,-2.59115 h 2.98178 l 7.40886,19.44013 h -2.73438 l -1.77083,-4.98698 h -8.76304 l -1.77083,4.98698 h -2.77344 z"
             id="path1899" /><path
             d="m 341.37875,532.05926 v 2.56511 q -1.49739,-0.71615 -2.82552,-1.06771 -1.32813,-0.35156 -2.56511,-0.35156 -2.14844,0 -3.32031,0.83333 -1.15886,0.83334 -1.15886,2.3698 0,1.28906 0.76823,1.95312 0.78125,0.65105 2.94271,1.05469 l 1.58855,0.32552 q 2.94271,0.5599 4.33594,1.97917 1.40625,1.40626 1.40625,3.77605 0,2.82552 -1.90104,4.28386 -1.88803,1.45834 -5.54689,1.45834 -1.38021,0 -2.94271,-0.31251 -1.54948,-0.3125 -3.21615,-0.92448 v -2.70833 q 1.60157,0.89844 3.13803,1.35417 1.53646,0.45573 3.02083,0.45573 2.25261,0 3.47657,-0.88542 1.22396,-0.88542 1.22396,-2.52605 0,-1.43229 -0.88542,-2.23958 -0.87239,-0.8073 -2.8776,-1.21094 l -1.60157,-0.3125 q -2.94271,-0.58594 -4.25782,-1.83594 -1.3151,-1.25 -1.3151,-3.47657 0,-2.57813 1.8099,-4.0625 1.82291,-1.48438 5.01302,-1.48438 1.36719,0 2.78646,0.2474 1.41928,0.24739 2.90365,0.74218 z"
             id="path1901" /><path
             d="m 359.31283,533.2051 q -2.86459,0 -4.5573,2.13542 -1.67969,2.13542 -1.67969,5.82032 0,3.67188 1.67969,5.8073 1.69271,2.13542 4.5573,2.13542 2.86458,0 4.53125,-2.13542 1.67969,-2.13542 1.67969,-5.8073 0,-3.6849 -1.67969,-5.82032 -1.66667,-2.13542 -4.53125,-2.13542 z m 0,-2.13542 q 4.08854,0 6.53646,2.7474 2.44792,2.73438 2.44792,7.34376 0,4.59636 -2.44792,7.34376 -2.44792,2.73438 -6.53646,2.73438 -4.10157,0 -6.56251,-2.73438 -2.44792,-2.73438 -2.44792,-7.34376 0,-4.60938 2.44792,-7.34376 2.46094,-2.7474 6.56251,-2.7474 z"
             id="path1903" /><path
             d="m 391.7391,532.91864 v 2.77344 q -1.32813,-1.23698 -2.83855,-1.84896 -1.49739,-0.61198 -3.1901,-0.61198 -3.33334,0 -5.10418,2.04427 -1.77083,2.03126 -1.77083,5.88543 0,3.84115 1.77083,5.88542 1.77084,2.03125 5.10418,2.03125 1.69271,0 3.1901,-0.61198 1.51042,-0.61198 2.83855,-1.84896 v 2.7474 q -1.38021,0.9375 -2.92969,1.40625 -1.53646,0.46876 -3.25521,0.46876 -4.41407,0 -6.95314,-2.69532 -2.53906,-2.70834 -2.53906,-7.38282 0,-4.68751 2.53906,-7.38282 2.53907,-2.70834 6.95314,-2.70834 1.74479,0 3.28125,0.46875 1.54948,0.45573 2.90365,1.38021 z"
             id="path1905" /><path
             d="m 400.5716,531.42124 h 2.63021 v 19.44013 h -2.63021 z"
             id="path1907" /><path
             d="m 419.70358,534.01239 -3.56771,9.67449 h 7.14845 z m -1.48437,-2.59115 h 2.98177 l 7.40887,19.44013 h -2.73438 l -1.77084,-4.98698 h -8.76303 l -1.77084,4.98698 h -2.77344 z"
             id="path1909" /><path
             d="m 450.30695,532.91864 v 2.77344 q -1.32813,-1.23698 -2.83855,-1.84896 -1.4974,-0.61198 -3.19011,-0.61198 -3.33333,0 -5.10417,2.04427 -1.77083,2.03126 -1.77083,5.88543 0,3.84115 1.77083,5.88542 1.77084,2.03125 5.10417,2.03125 1.69271,0 3.19011,-0.61198 1.51042,-0.61198 2.83855,-1.84896 v 2.7474 q -1.38021,0.9375 -2.92969,1.40625 -1.53646,0.46876 -3.25522,0.46876 -4.41406,0 -6.95313,-2.69532 -2.53907,-2.70834 -2.53907,-7.38282 0,-4.68751 2.53907,-7.38282 2.53907,-2.70834 6.95313,-2.70834 1.7448,0 3.28126,0.46875 1.54948,0.45573 2.90365,1.38021 z"
             id="path1911" /><path
             d="m 459.13944,531.42124 h 2.63021 v 19.44013 h -2.63021 z"
             id="path1913" /><path
             d="m 479.66466,533.2051 q -2.86459,0 -4.5573,2.13542 -1.67969,2.13542 -1.67969,5.82032 0,3.67188 1.67969,5.8073 1.69271,2.13542 4.5573,2.13542 2.86458,0 4.53125,-2.13542 1.67969,-2.13542 1.67969,-5.8073 0,-3.6849 -1.67969,-5.82032 -1.66667,-2.13542 -4.53125,-2.13542 z m 0,-2.13542 q 4.08854,0 6.53646,2.7474 2.44792,2.73438 2.44792,7.34376 0,4.59636 -2.44792,7.34376 -2.44792,2.73438 -6.53646,2.73438 -4.10157,0 -6.56251,-2.73438 -2.44792,-2.73438 -2.44792,-7.34376 0,-4.60938 2.44792,-7.34376 2.46094,-2.7474 6.56251,-2.7474 z m 0.71614,-4.9349 h 2.40886 l -2.96875,3.4375 h -1.99219 z"
             id="path1915" /><path
             d="m 497.53362,531.42124 h 3.54167 l 8.6198,16.26304 v -16.26304 h 2.55209 v 19.44013 h -3.54167 l -8.61981,-16.26304 v 16.26304 h -2.55208 z"
             id="path1917" /><path
             d="m 550.21542,532.91864 v 2.77344 q -1.32812,-1.23698 -2.83854,-1.84896 -1.4974,-0.61198 -3.19011,-0.61198 -3.33334,0 -5.10417,2.04427 -1.77084,2.03126 -1.77084,5.88543 0,3.84115 1.77084,5.88542 1.77083,2.03125 5.10417,2.03125 1.69271,0 3.19011,-0.61198 1.51042,-0.61198 2.83854,-1.84896 v 2.7474 q -1.38021,0.9375 -2.92969,1.40625 -1.53646,0.46876 -3.25521,0.46876 -4.41407,0 -6.95313,-2.69532 -2.53907,-2.70834 -2.53907,-7.38282 0,-4.68751 2.53907,-7.38282 2.53906,-2.70834 6.95313,-2.70834 1.7448,0 3.28126,0.46875 1.54948,0.45573 2.90364,1.38021 z"
             id="path1919" /><path
             d="m 559.04792,531.42124 h 2.63021 v 19.44013 h -2.63021 z"
             id="path1921" /><path
             d="m 576.69553,550.86137 -7.42189,-19.44013 h 2.7474 l 6.15886,16.36721 6.17189,-16.36721 h 2.73437 l -7.40886,19.44013 z"
             id="path1923" /><path
             d="m 594.69471,531.42124 h 2.63021 v 19.44013 h -2.63021 z"
             id="path1925" /><path
             d="m 607.32929,531.42124 h 2.63021 v 17.22659 h 9.46616 v 2.21354 h -12.09637 z"
             id="path1927" /></g><g
           id="g572"
           style="fill:#2b8951;fill-opacity:1"><g
             aria-label="DE"
             transform="scale(0.90060448,1.1103653)"
             id="text339"
             style="font-weight:bold;font-size:11.2658px;-inkscape-font-specification:'sans-serif Bold';stroke-width:0.15088"><path
               d="m 114.82914,107.04007 q 0,2.03911 -1.16038,3.07557 -1.14911,1.02518 -3.23328,1.02518 h -2.27569 v -8.04378 h 2.52354 q 1.26177,0 2.18556,0.45063 0.93506,0.45064 1.44203,1.32937 0.51822,0.86746 0.51822,2.16303 z m -1.76873,0.0451 q 0,-1.34064 -0.58582,-1.96025 -0.58582,-0.63089 -1.70114,-0.63089 h -0.91253 v 5.2386 h 0.73228 q 2.46721,0 2.46721,-2.64746 z"
               id="path1930" /><path
               d="m 121.12672,111.14082 h -4.63024 v -8.04378 h 4.63024 v 1.39696 h -2.92911 v 1.76873 h 2.72633 v 1.39696 h -2.72633 v 2.07291 h 2.92911 z"
               id="path1932" /></g><path
             id="rect425"
             style="stroke-width:0.261805"
             d="m 69.229828,117.7829 h 25.137554 v 1.57839 H 69.229828 Z" /><path
             id="rect425-9"
             style="stroke-width:0.276817"
             d="m 113.19456,117.78175 h 28.10297 v 1.5784 h -28.10297 z" /></g></g><g
         id="g621"
         style="fill:#0070c0;fill-opacity:1"><path
           id="text231"
           style="font-style:normal;font-variant:normal;font-weight:bold;font-stretch:normal;font-size:74.6667px;font-family:sans-serif;-inkscape-font-specification:'sans-serif Bold';white-space:pre;shape-inside:url(#rect233);shape-padding:4.27482;fill:#0070c0;stroke-width:0.216931;fill-opacity:1"
           d="m 54.639122,99.226939 c -1.123733,0 -2.050222,0.278861 -2.780172,0.837321 -0.720346,0.54631 -1.258546,1.31744 -1.613916,2.31296 -0.345766,0.9955 -0.518336,2.1671 -0.518336,3.5147 0,1.34758 0.17257,2.52504 0.518336,3.53269 0.35537,1.00764 0.89357,1.791 1.613916,2.34946 0.72995,0.55846 1.651699,0.83731 2.765832,0.83731 1.123734,0 2.046001,-0.27885 2.766346,-0.83731 0.720345,-0.55846 1.253296,-1.33546 1.599062,-2.33098 0.355365,-1.00765 0.533191,-2.18559 0.533191,-3.53319 0,-1.34757 -0.177826,-2.51917 -0.533191,-3.51468 -0.345766,-1.00765 -0.878717,-1.78465 -1.599062,-2.33096 -0.720345,-0.55846 -1.63787,-0.837321 -2.752006,-0.837321 z m 20.515312,0 c -1.123735,0 -2.050228,0.278861 -2.780173,0.837321 -0.720346,0.54631 -1.258546,1.31744 -1.613915,2.31296 -0.345766,0.9955 -0.518338,2.1671 -0.518338,3.5147 0,1.34758 0.172572,2.52504 0.518338,3.53269 0.355369,1.00764 0.893569,1.791 1.613915,2.34946 0.729945,0.55846 1.651702,0.83731 2.765832,0.83731 1.12374,0 2.046004,-0.27885 2.766345,-0.83731 0.720348,-0.55846 1.253296,-1.33546 1.599062,-2.33098 0.355372,-1.00765 0.533193,-2.18559 0.533193,-3.53319 0,-1.34757 -0.177821,-2.51917 -0.533193,-3.51468 -0.345766,-1.00765 -0.878714,-1.78465 -1.599062,-2.33096 -0.720341,-0.55846 -1.637872,-0.837321 -2.752004,-0.837321 z m 65.782266,0.145474 -3.63041,13.056997 h 2.34841 l 0.74881,-3.09579 h 3.74565 l 0.74934,3.09579 h 2.34841 l -3.64476,-13.056997 z m -79.281068,0.0545 v 13.002507 h 2.175278 v -4.62544 h 0.936285 c 0.998879,0 1.786466,-0.20023 2.362739,-0.60086 0.58588,-0.40063 1.003613,-0.92905 1.253332,-1.58463 0.249719,-0.66771 0.374925,-1.37781 0.374925,-2.13051 0,-1.26261 -0.307767,-2.25203 -0.922456,-2.96833 -0.605092,-0.728427 -1.569983,-1.092739 -2.89542,-1.092739 z m 20.515312,0 v 13.002507 h 2.175276 v -4.98985 h 1.167285 l 2.448785,4.98985 h 2.420619 l -3.025517,-5.66321 c 0.336162,-0.19424 0.648152,-0.44331 0.936286,-0.74681 0.297743,-0.31567 0.532917,-0.69219 0.705801,-1.12925 0.182488,-0.44919 0.274022,-0.97125 0.274022,-1.56614 0,-1.31115 -0.336182,-2.2884 -1.008504,-2.93183 -0.662718,-0.643445 -1.695465,-0.965269 -3.097732,-0.965269 z m 8.499815,0 v 2.294947 h 2.79503 v 10.70755 h 2.175787 v -10.70755 h 2.794516 v -2.294947 z m 9.278344,0 v 8.377057 c 0,1.44472 0.355127,2.61044 1.065867,3.4967 0.71074,0.87412 1.74822,1.31072 3.11208,1.31072 0.96045,0 1.75277,-0.20611 2.37708,-0.61886 0.6339,-0.42491 1.10476,-0.99582 1.41211,-1.71211 0.31694,-0.72841 0.47531,-1.54155 0.47531,-2.43995 v -8.413557 h -2.17578 v 7.940167 c 0,1.00765 -0.16311,1.74803 -0.48966,2.2215 -0.31696,0.47349 -0.83096,0.71033 -1.54169,0.71033 -0.68194,0 -1.19544,-0.21879 -1.54119,-0.65584 -0.34576,-0.43705 -0.51885,-1.18963 -0.51885,-2.25799 v -7.958167 z m 10.963457,0 v 13.002507 h 1.94479 v -6.1186 c -0.0193,-0.61915 -0.0429,-1.23841 -0.0717,-1.85756 l -0.0579,-1.85758 h 0.0579 l 4.48063,9.83374 h 2.76585 V 99.426895 H 118.073 v 6.155595 l 0.0574,1.78458 c 0.0193,0.59488 0.0338,1.19559 0.0435,1.80259 h -0.0435 l -4.46579,-9.742765 z m 10.87739,0 v 1.566127 l 1.25336,0.72882 v 8.41308 l -1.25336,0.72834 v 1.56614 h 4.68196 v -1.56614 l -1.25334,-0.72834 v -8.41308 l 1.25334,-0.72882 v -1.566127 z m 6.4398,0 v 13.002507 h 2.91028 c 1.77684,0 3.15524,-0.55233 4.13492,-1.65712 0.98926,-1.11692 1.48381,-2.77395 1.48381,-4.97135 0,-1.39616 -0.22096,-2.56189 -0.66278,-3.49671 -0.43219,-0.94695 -1.04671,-1.66289 -1.84388,-2.14851 -0.78759,-0.485614 -1.71931,-0.728819 -2.79504,-0.728819 z m 20.31351,0 v 13.002507 h 2.91026 c 1.77685,0 3.15524,-0.55233 4.13493,-1.65712 0.98926,-1.11692 1.48382,-2.77395 1.48382,-4.97135 0,-1.39616 -0.22096,-2.56189 -0.66278,-3.49671 -0.4322,-0.94695 -1.04671,-1.66289 -1.84389,-2.14851 -0.78758,-0.485614 -1.71931,-0.728819 -2.79503,-0.728819 z m -6.26667,1.967047 c 0.0481,0.2428 0.11011,0.528 0.18696,0.85579 0.0768,0.32778 0.15416,0.64964 0.23098,0.96529 0.0769,0.31564 0.13894,0.57642 0.18696,0.78282 l 0.74934,3.0233 h -2.67978 l 0.73499,-3.0233 c 0.0385,-0.13355 0.091,-0.3582 0.15826,-0.67385 0.0767,-0.32779 0.15365,-0.66769 0.2305,-1.01977 0.0864,-0.36421 0.15376,-0.66748 0.20179,-0.91028 z m -87.637468,0.12747 c 0.922045,0 1.584939,0.38824 1.988328,1.16524 0.403395,0.77698 0.604897,1.8514 0.604897,3.22324 0,1.35974 -0.201502,2.43415 -0.604897,3.22327 -0.403389,0.777 -1.071023,1.16573 -2.002668,1.16573 -0.912438,0 -1.575327,-0.38873 -1.988325,-1.16573 -0.413,-0.78912 -0.619241,-1.86353 -0.619241,-3.22327 0,-1.37184 0.206241,-2.44626 0.619241,-3.22324 0.412998,-0.777 1.080628,-1.16524 2.002665,-1.16524 z m 20.515312,0 c 0.922039,0 1.584933,0.38824 1.988328,1.16524 0.403394,0.77698 0.60541,1.8514 0.60541,3.22324 0,1.35974 -0.202016,2.43415 -0.60541,3.22327 -0.403395,0.777 -1.071023,1.16573 -2.002669,1.16573 -0.912433,0 -1.574815,-0.38873 -1.987813,-1.16573 -0.413,-0.78912 -0.619751,-1.86353 -0.619751,-3.22327 0,-1.37184 0.206751,-2.44626 0.619751,-3.22324 0.412998,-0.777 1.080113,-1.16524 2.002154,-1.16524 z m -11.323524,0.16396 h 0.994162 c 1.152553,0 1.728646,0.63097 1.728646,1.89356 0,0.69202 -0.182557,1.19599 -0.547533,1.51166 -0.35537,0.30351 -0.840441,0.45538 -1.455135,0.45538 h -0.72014 z m 20.51531,0 h 0.662776 c 0.710737,0 1.229482,0.13331 1.556036,0.4004 0.336164,0.25494 0.503998,0.69203 0.503998,1.3112 0,0.59488 -0.158367,1.04419 -0.475314,1.34769 -0.307346,0.30352 -0.821354,0.45539 -1.541696,0.45539 h -0.7058 z m 46.0588,0 h 1.16729 c 0.95085,0 1.67583,0.33989 2.17526,1.01975 0.49945,0.66774 0.74935,1.72409 0.74935,3.16878 0,2.85299 -1.0517,4.27903 -3.15511,4.27903 h -0.93679 z m 20.31401,0 h 1.16679 c 0.95086,0 1.67584,0.33989 2.17527,1.01975 0.49944,0.66774 0.74933,1.72409 0.74933,3.16878 0,2.85299 -1.05168,4.27903 -3.15509,4.27903 h -0.9363 z" /><g
           aria-label="Cambio"
           transform="matrix(0.277494,-0.01924616,-0.09391007,0.26965244,55.636746,-3.9438595)"
           id="text521"
           style="font-size:192px;font-family:Chilanka;-inkscape-font-specification:Chilanka;letter-spacing:10px;word-spacing:0px;white-space:pre;fill:#0070c0;fill-opacity:1"><path
             d="m 123.03212,538.11353 c -3.41949,-26.39952 16.20625,-61.88818 24.91828,-70.87067 8.11388,-8.80854 16.50077,-14.67675 24.81327,-16.05175 0.8125,-0.125 1.625,-0.1875 2.4375,-0.1875 1.3125,0 2.6875,0.15625 4.125,0.46875 9.24768,2.37709 17.00393,15.96735 18.52915,20.97804 1.54575,5.47091 0.0765,15.01168 0.0206,15.82128 -2.73104,9.3996 -7.43086,34.40405 -21.83907,35.65705 -1.57893,0.13731 -3.54566,0.42168 -5.09674,-0.49555 -1.55108,-0.91723 -1.42142,-2.32658 -1.47288,-3.47653 -0.13746,-3.07131 2.31996,-6.22131 3.04459,-10.58863 2.38134,-6.29225 14.22718,-34.61589 8.82678,-41.28522 -2.18296,-1.88605 -4.53212,-4.63113 -12.30851,2.08381 -17.32345,16.52797 -23.03747,32.45617 -27.03723,42.09514 -3.99977,9.63897 -2.95837,12.51141 -3.98801,17.79188 -0.0625,2.1875 -0.0937,4.34375 -0.0937,6.46875 v 1.5 c 2.08563,16.55616 6.89812,31.47928 17.24575,36.06456 10.34763,4.58528 36.03608,-22.96202 51.0529,-35.82308 0.9375,-0.9375 2,-1.40625 3.1875,-1.40625 0.625,0 1.28125,0.125 1.96875,0.375 1.1875,0.4375 1.78125,1.25 1.78125,2.4375 0,0.5625 -0.46875,2.0625 -0.46875,2.0625 -0.5625,1.4375 -8.06593,16.17424 -9.62843,19.11174 -1.5,2.9375 -1.44375,4.73023 -4.6875,8.625 -3.24375,3.89477 -9.0806,11.06404 -14.06765,15.40926 -2.6875,2.25 -5.65625,3.9375 -8.90625,5.0625 -1.0625,0.4375 -1.96875,0.75 -2.71875,0.9375 -0.75,0.1875 -1.59375,0.3125 -2.53125,0.375 -25.40875,4.25703 -43.68711,-26.74056 -47.1066,-53.14008 z"
             style="-inkscape-font-specification:'Perfect Island';fill:#0070c0;fill-opacity:1"
             id="path467"
             sodipodi:nodetypes="zccscccszsccczcsczcscscczccscz" /><path
             d="m 253.38206,565.89633 c -3.65813,-7.42947 -5.50092,-11.53187 -6.68089,-16.73652 1.1585,-5.55785 -3.58431,2.43565 -4.69322,4.25868 -2.98991,4.50063 -5.93178,9.71017 -7.68178,13.64767 -3.25,6.75 -6.125,10.28125 -8.625,10.59375 -2.4375,0.3125 -3.90625,0.46875 -4.40625,0.46875 -3.75,0 -7.1875,-1.71875 -10.3125,-5.15625 -3.5,-3.9375 -5.5,-9.1875 -6,-15.75 -0.0625,-1.1875 -0.0937,-2.34375 -0.0937,-3.46875 0,-6.4375 0.875,-12.90625 2.625,-19.40625 2.0625,-7.625 5.875,-14.15625 11.4375,-19.59375 8.66051,-10.92357 23.12495,-18.35679 27.24449,-18.37059 25.39351,-0.0851 18.57161,10.83013 8.05759,17.84069 0.875,0.875 -0.82166,6.5054 -1.68089,7.58102 l -3.43204,-7.01363 c -0.29048,-0.59361 1.25561,0.14399 2.06811,-0.16851 1.1875,-0.5 1.71149,0.13102 2.89899,0.13102 1.375,0 2.78125,0.375 4.21875,1.125 2.75,1.5 4.5,3.875 5.25,7.125 0.3125,1.4375 0.46875,3.40625 0.46875,5.90625 0,2.5 -0.125,4.9375 -0.375,7.3125 -0.125,1 -0.3125,2.53125 -0.5625,4.59375 -0.25,2 -0.5,4.03125 -0.75,6.09375 -1.36028,13.54839 7.96233,17.38191 11.43808,9.14168 4.56019,-7.18461 17.64037,-37.19824 17.89922,-26.61736 -0.471,2.35398 3.22341,9.17667 2.45434,11.23408 1.25853,11.49029 -7.88685,21.15267 -12.71853,27.44955 -4.83168,6.29688 -7.54843,7.96602 -9.86093,8.84102 -2.25,0.875 -4.03125,1.3125 -5.34375,1.3125 -1.9375,0 -3.84375,-0.5625 -5.71875,-1.6875 -3.1875,-2 -5.46824,-7.62382 -7.125,-10.6875 -1.65676,-3.06368 -9e-5,-5e-5 -9e-5,-5e-5 z m -27.96214,-6.33027 c 2.0625,-3.4375 5.125,-10.1875 9.1875,-20.25 0.5625,-1.3125 1.25,-2.875 2.0625,-4.6875 0.875,-1.8125 1.71875,-3.46875 2.53125,-4.96875 0.1875,-0.4375 0.40625,-0.84375 0.65625,-1.21875 0.625,-1.25 1.18748,-2.28121 1.6875,-3.1875 0.50002,-0.90629 0.8125,-1.53125 0.9375,-1.78125 0.1875,-0.375 -0.0992,-0.3841 0.28125,-1.03125 0.38046,-0.64715 3.51831,-4.2714 2.08081,-5.0839 -1.125,-0.5625 8.42165,-6.44545 5.3345,-7.24076 -12.6791,-3.26636 -17.10281,9.69966 -19.22781,11.57466 -1.0625,1 -2.1875,2.5625 -3.375,4.6875 -1.125,2.125 -2.125,4.4375 -3,6.9375 -1.3125,3.875 -2.25,7.90625 -2.8125,12.09375 -0.5625,4.125 -0.84375,7.5625 -0.84375,10.3125 0,0.875 0.0312,1.6875 0.0937,2.4375 0.25,3.0625 0.875,4.59375 1.875,4.59375 h 0.1875 c 0.125,-0.125 0.40625,-0.46875 0.84375,-1.03125 0.5,-0.625 1,-1.34375 1.5,-2.15625 z"
             style="-inkscape-font-specification:'Perfect Island';fill:#0070c0;fill-opacity:1"
             id="path469"
             sodipodi:nodetypes="cccccsccsccsccscsccscccccczcsczcscccczszcsccccscsccss" /><path
             d="m 372.81594,570.55823 c -1.4375,-2.875 -2.40625,-6 -2.90625,-9.375 -0.5,-3.4375 1.40293,-14.84442 1.40293,-17.96942 0,-3.5625 5.80761,-26.11577 5.86057,-29.09067 -14.84643,10.76056 -24.08792,35.88575 -30.47202,51.34917 -0.1875,2.25 -0.53125,3.84375 -1.03125,4.78125 -0.5,0.9375 -1.40625,1.75 -2.71875,2.4375 -0.6875,0.3125 -1.25,0.53125 -1.6875,0.65625 -0.375,0.0625 -0.75,0.0937 -1.125,0.0937 -0.3125,0 -0.6875,-0.0312 -1.125,-0.0937 -2.25,-0.125 -3.90625,-1.25 -4.96875,-3.375 -1.5,-3 -2.25,-9.1875 -2.25,-18.5625 0,-5.75 0.28125,-12.6875 0.84375,-20.8125 0.125,-1.8125 0.1875,-3.5625 0.1875,-5.25 0,-1.25 -0.0312,-2.4375 -0.0937,-3.5625 -0.125,-2.6875 -0.40625,-4.3125 -0.84375,-4.875 -0.125,-0.125 -0.28125,-0.1875 -0.46875,-0.1875 -0.6875,0 -1.65625,0.875 -2.90625,2.625 -1.625,2.125 -3.1875,4.84375 -4.6875,8.15625 -2.9375,7.3125 -5.4375,19.03125 -7.5,35.15625 -1,8.1875 -1.84375,12.9375 -2.53125,14.25 -1.4375,2.375 -4.375,3.625 -8.8125,3.75 -2.25,0 -4.09375,-0.5625 -5.53125,-1.6875 -1.375,-1.125 -2.875,-3.25 -4.5,-6.375 -1.1875,-2.1875 -2.125,-4.3125 -2.8125,-6.375 -0.75,-2.0625 -1.4375,-4.5625 -2.0625,-7.5 -1.0625,-5.1875 -1.6875,-9.1875 -1.875,-12 -0.25,-2.8125 -0.375,-5.125 -0.375,-6.9375 0,-2.125 0.0937,-4.34375 0.28125,-6.65625 0.3125,-5 1,-8.59375 2.0625,-10.78125 1,-2.25 5.10448,-20.54231 7.29198,-20.97981 0.625,-0.125 1.25,-0.1875 1.875,-0.1875 2.3125,0 4.6875,0.625 7.125,1.875 3.1875,1.5625 5.125,3.46875 5.8125,5.71875 0.0625,0.375 0.0625,1.0625 0,2.0625 0,1 -0.0625,2.0625 -0.1875,3.1875 -0.3125,3.0625 -3.01073,22.66731 -3.07323,24.91731 -0.0625,2.1875 -0.0937,3.8125 -0.0937,4.875 0,1.5625 0.0625,2.875 0.1875,3.9375 l 0.28125,2.90625 0.75,-1.5 c 0.1875,-0.5 0.5,-1.53125 0.9375,-3.09375 0.4375,-1.5625 0.90625,-3.3125 1.40625,-5.25 2.375,-9.5625 5.4375,-17.28125 9.1875,-23.15625 3.8125,-5.9375 6.875,-9.21875 9.1875,-9.84375 2.375,-0.6875 3.9375,-1.03125 4.6875,-1.03125 2.9375,0 5.5,1.875 7.6875,5.625 2.75,4.6875 1.80934,13.63084 1.99684,25.31834 9.28161,-10.73382 17.18748,-32.74148 34.47513,-33.91751 0.4375,0 0.90625,0.0312 1.40625,0.0937 3.4375,0.1875 6.09375,1.59375 7.96875,4.21875 1.5,2.125 -4.70449,29.93924 -4.57949,37.50174 -1.80872,8.88501 -3.15379,15.87622 -1.13575,14.73807 16.07028,-9.06342 18.96216,-8.55742 23.46825,-4.9083 2.84254,7.69955 -13.00993,21.27725 -20.70401,21.47858 -2.125,0.0625 -3.25,0.0937 -3.375,0.0937 -4,0 -7.3125,-2.15625 -9.9375,-6.46875 z"
             style="-inkscape-font-specification:'Perfect Island';fill:#0070c0;fill-opacity:1"
             id="path471"
             sodipodi:nodetypes="ccsccsccscsscsccsccccccccccsccsscccccscccscccsccccccsccscc" /><path
             d="m 418.96782,580.69771 c -14.20727,1.0293 -12.00826,-25.91999 -12.57076,-28.85749 -0.5625,-2.9375 10.49329,7.75357 10.49329,6.19107 7.89661,10.02019 15.45136,4.5504 23.29736,-2.49227 8.49018,-9.21504 20.33635,-23.33007 14.98837,-30.17784 -5.34798,-6.84777 -14.19761,-4.12314 -15.01011,-4.12314 -1.125,0 -6.44284,-0.42951 -9.31943,3.74574 -2.87659,4.17525 -7.97483,15.0162 -10.56071,26.72707 -0.375,2.0625 -0.71875,3.65625 -1.03125,4.78125 -0.25,1.125 -0.5625,1.96875 -0.9375,2.53125 -0.3125,0.5625 -0.75,1.03125 -1.3125,1.40625 -0.9375,0.625 -2.1875,0.9375 -3.75,0.9375 h -0.46875 c -1.8125,-0.0625 -3.375,-0.43746 -4.6875,-1.125 -1.25,-0.6875 -2.25,-1.46875 -3,-2.34375 1.2049,-15.37483 5.7158,-31.78271 7.77021,-39.94906 2.05441,-8.16635 5.88574,-37.15429 11.7843,-59.17321 0.375,0 0.78125,0.0312 1.21875,0.0937 1.5625,0.1875 3.03125,0.5625 4.40625,1.125 3.6875,1.375 7.05929,1.76904 7.05929,6.39404 0,1.5 -1.74679,5.82471 -2.18429,7.76221 -3.05183,17.85757 -3.33918,31.86662 -3.33918,31.86662 0,0 22.26989,-2.56813 32.5322,15.99882 11.81129,38.16215 -31.17077,57.65194 -45.37804,58.68124 z"
             style="-inkscape-font-specification:'Perfect Island';fill:#0070c0;fill-opacity:1"
             id="path473"
             sodipodi:nodetypes="zscczszcccssccczcccscccz" /><path
             d="m 494.88306,503.69226 c -4.0625,-1.9375 -6.25,-3.90625 -6.5625,-5.90625 -0.375,-2 -0.5625,-3.34375 -0.5625,-4.03125 0,-2.3125 0.78125,-4.25 2.34375,-5.8125 1.125,-1.0625 2.46875,-1.59375 4.03125,-1.59375 1.5,0 3.1875,0.46875 5.0625,1.40625 2.375,1.125 3.75,2.1875 4.125,3.1875 0.4375,0.9375 0.65625,1.90625 0.65625,2.90625 0,1 -0.15625,2.21875 -0.46875,3.65625 -0.4375,1.8125 -0.84375,3.125 -1.21875,3.9375 -0.3125,0.8125 -0.71875,1.46875 -1.21875,1.96875 -0.75,0.75 -1.6875,1.125 -2.8125,1.125 -1,0 -2.125,-0.28125 -3.375,-0.84375 z m -4.61939,74.4363 c -3.9375,-1.375 -6.78125,-4.03125 -8.53125,-7.96875 -1.8125,-3.9375 -2.8125,-7.6875 -3,-11.25 -0.1875,-3.5625 -0.28125,-6.28125 -0.28125,-8.15625 0,-3.125 0.15625,-6.1875 0.46875,-9.1875 0,-0.5625 0.0312,-1.1875 0.0937,-1.875 0.1875,-2.5625 0.5,-5.5 0.9375,-8.8125 0.4375,-3.375 1.21875,-6.40625 2.34375,-9.09375 1.0625,-2.75 2.625,-4.5 4.6875,-5.25 0.5,-0.125 1.0625,-0.1875 1.6875,-0.1875 1.125,0 2.375,0.25 3.75,0.75 2,0.6875 3.53125,1.65625 4.59375,2.90625 0.5625,0.875 0.875,1.78125 0.9375,2.71875 0.0625,0.9375 0.0937,1.53125 0.0937,1.78125 0,1.4375 -0.15625,2.8125 -0.46875,4.125 -0.875,3.0625 -1.53125,6.75 -1.96875,11.0625 -0.375,4.25 -0.625,7.96875 -0.75,11.15625 -0.125,2.4375 -0.1875,4.5625 -0.1875,6.375 0,4.1875 0.34375,6.8125 1.03125,7.875 0.375,0.5625 0.78125,0.84375 1.21875,0.84375 0.75,0 1.6875,-0.8125 2.8125,-2.4375 1.75,-2.625 3.59375,-6.125 5.53125,-10.5 1.9375,-4.4375 3.625,-8.59375 5.0625,-12.46875 1.75,-4.875 3.53125,-7.3125 5.34375,-7.3125 0.375,0 0.78125,0.125 1.21875,0.375 0.75,0.3125 1.1875,0.65625 1.3125,1.03125 0.1875,0.375 0.28125,0.71875 0.28125,1.03125 0,0.4375 -0.0937,0.9375 -0.28125,1.5 -0.25,1.125 -0.8125,2.71875 -1.6875,4.78125 -0.625,1.6875 -1.28125,3.46875 -1.96875,5.34375 -0.6875,1.875 -1.25,3.40625 -1.6875,4.59375 -0.375,0.9375 -0.78125,2 -1.21875,3.1875 -0.6875,2 -1.34375,3.84375 -1.96875,5.53125 -3.4375,9.5625 -7.09375,15.28125 -10.96875,17.15625 -1,0.375 -2.03125,0.59375 -3.09375,0.65625 h -2.0625 c -1.3125,0 -2.40625,-0.0937 -3.28125,-0.28125 z"
             style="-inkscape-font-specification:'Perfect Island';fill:#0070c0;fill-opacity:1"
             id="path475"
             sodipodi:nodetypes="ccscsccsccsscccsscccccsccsscccscscccsccsccscccccscc" /><path
             d="m 518.87222,569.09852 q -2.47704,-3.59012 -4.34454,-8.71301 -1.88595,-5.21236 -2.51371,-8.25429 -0.88632,-4.29446 -0.84912,-8.60074 -0.11965,-7.30936 4.99202,-10.58165 0.83116,-0.45917 1.53534,-0.97275 0.7042,-0.5136 0.88428,-0.76259 0.16165,-0.33846 0.19406,-1.3032 0.14086,-0.99976 0.11786,-2.2329 -0.15203,-6.34462 1.79913,-12.03213 2.05967,-5.72255 5.52524,-8.55892 2.79827,-2.14384 5.72808,-3.08954 4.66607,-1.50604 9.30877,0.23973 10.92223,5.25377 14.20901,21.17909 l 0.20287,0.98419 q 1.25564,6.08382 2.55779,5.66349 0.21671,-0.071 1.67623,-1.97251 1.45922,-1.90244 3.31326,-4.69579 l 0.54026,-0.74694 q 0.7735,-1.29939 2.12422,-3.16685 1.4592,-1.90242 2.66902,-2.77008 1.19135,-0.95713 1.84242,-1.16728 0.86822,-0.2798 1.73846,0.0114 0.52638,0.30724 0.65562,0.9335 0.0737,0.35791 0.0583,0.84019 -0.0855,1.26818 -0.84052,2.65704 -4.1515,7.92462 -6.50889,11.64386 -2.35743,3.71924 -4.73783,6.20534 -1.31604,1.4745 -2.23498,2.62999 -0.81043,1.12043 -0.86354,1.42388 -0.0344,0.39284 -0.22864,1.69609 -0.0855,1.26816 -0.20564,2.92922 -0.49905,6.55482 -2.24939,12.65462 -1.64181,6.06482 -3.85606,9.35613 -4.10748,5.33387 -9.20754,6.98013 -0.86826,0.27981 -1.75462,0.47107 -6.13434,1.12125 -11.97522,-1.38306 -5.75091,-2.62875 -9.30146,-7.49467 z m 28.46111,-28.65447 q 0.4133,-0.8014 0.34424,-4.5008 -0.0691,-3.69942 -0.42895,-7.68667 -0.11343,-1.10855 -0.33474,-2.18223 -0.90475,-4.38393 -2.87617,-8.32814 -2.4285,-5.0372 -5.35125,-6.86119 -0.76187,-0.32665 -1.50527,-0.56383 -0.74338,-0.23718 -1.06896,-0.13194 -2.27871,0.73564 -3.43339,6.35684 -1.15469,5.62126 -0.15528,11.02437 0.57242,2.77351 2.63388,6.59321 2.15153,3.6952 4.13232,5.44154 2.19779,1.67626 3.97321,1.86661 1.88388,0.15528 2.75198,-0.12494 0.86823,-0.27979 1.31834,-0.9027 z m -5.64381,24.24748 q 1.94408,-2.91783 3.85152,-10.49981 0.62348,-2.58698 0.69275,-3.37277 0.0508,-0.87526 -0.005,-1.14366 -0.12939,-0.62625 -0.61871,-0.75458 -0.7434,-0.23718 -2.44494,-0.0697 -1.24903,0.11687 -3.09597,0.14057 -1.73848,-0.0114 -3.25992,-0.0929 -2.24637,-0.22917 -3.22297,0.0861 -0.54273,0.17472 -0.70419,0.5136 -0.43176,0.71195 0.0114,2.85918 0.18478,0.89464 0.55162,2.11221 2.33821,9.64692 5.55184,11.75872 0.63487,0.27222 1.06897,0.13196 l 0.2167,-0.071 q 0.52414,-0.26452 1.40612,-1.59901 z"
             style="-inkscape-font-specification:'Perfect Island';stroke-width:1.08544;fill:#0070c0;fill-opacity:1"
             id="path477" /></g></g></g></g></svg>
